<svg width="24" height="24" viewBox="0 0 24 24" fill="none" xmlns="http://www.w3.org/2000/svg">
<path d="M14 19C13.7348 19 13.4804 19.1054 13.2929 19.2929C13.1054 19.4804 13 19.7348 13 20C13 20.2652 13.1054 20.5196 13.2929 20.7071C13.4804 20.8946 13.7348 21 14 21H19C19.5304 21 20.0391 20.7893 20.4142 20.4142C20.7893 20.0391 21 19.5304 21 19V5C21 4.46957 20.7893 3.96086 20.4142 3.58579C20.0391 3.21071 19.5304 3 19 3H14C13.7348 3 13.4804 3.10536 13.2929 3.29289C13.1054 3.48043 13 3.73478 13 4C13 4.26522 13.1054 4.51957 13.2929 4.70711C13.4804 4.89464 13.7348 5 14 5H19V19H14Z" fill="white"/>
<path d="M15.714 12.7C15.8969 12.5141 15.9996 12.2638 16 12.003V11.997C15.9995 11.7328 15.8941 11.4796 15.707 11.293L11.707 7.29302C11.6148 7.19751 11.5044 7.12133 11.3824 7.06892C11.2604 7.01651 11.1292 6.98892 10.9964 6.98777C10.8636 6.98662 10.7319 7.01192 10.609 7.0622C10.4861 7.11248 10.3745 7.18673 10.2806 7.28062C10.1867 7.37452 10.1125 7.48617 10.0622 7.60907C10.0119 7.73196 9.9866 7.86364 9.98775 7.99642C9.9889 8.1292 10.0165 8.26042 10.0689 8.38242C10.1213 8.50443 10.1975 8.61477 10.293 8.70702L12.586 11H3C2.73478 11 2.48043 11.1054 2.29289 11.2929C2.10536 11.4804 2 11.7348 2 12C2 12.2652 2.10536 12.5196 2.29289 12.7071C2.48043 12.8947 2.73478 13 3 13H12.586L10.293 15.293C10.1975 15.3853 10.1213 15.4956 10.0689 15.6176C10.0165 15.7396 9.9889 15.8708 9.98775 16.0036C9.9866 16.1364 10.0119 16.2681 10.0622 16.391C10.1125 16.5139 10.1867 16.6255 10.2806 16.7194C10.3745 16.8133 10.4861 16.8876 10.609 16.9378C10.7319 16.9881 10.8636 17.0134 10.9964 17.0123C11.1292 17.0111 11.2604 16.9835 11.3824 16.9311C11.5044 16.8787 11.6148 16.8025 11.707 16.707L15.707 12.707L15.714 12.7Z" fill="white"/>
</svg>
